<svg xmlns="http://www.w3.org/2000/svg" width="64" height="64" viewBox="0 0 64 64" fill="none">
  <rect width="64" height="64" rx="18" fill="#FFFFFF"/>
  <path d="M16 34c6-10 14-16 24-16 8 0 14 4 14 10 0 7-7 12-15 12-5 0-9-2-12-6-4 8-10 12-17 12-5 0-8-3-8-7 0-3 2-5 5-5" stroke="#2B8A67" stroke-width="3" stroke-linecap="round" stroke-linejoin="round"/>
  <path d="M44 16c3 2 5 4 6 7" stroke="#2B8A67" stroke-width="3" stroke-linecap="round"/>
  <path d="M48 13c1 3 1 6-1 9" stroke="#2B8A67" stroke-width="3" stroke-linecap="round"/>
</svg>
